<svg width="16" height="16" viewBox="0 0 16 16" fill="none" xmlns="http://www.w3.org/2000/svg">
<path d="M13.8226 12.971C13.8788 13.0268 13.9234 13.0931 13.9539 13.1662C13.9843 13.2393 14 13.3177 14 13.3968C14 13.476 13.9843 13.5544 13.9539 13.6275C13.9234 13.7005 13.8788 13.7669 13.8226 13.8226C13.7669 13.8788 13.7006 13.9234 13.6275 13.9539C13.5544 13.9843 13.476 14 13.3969 14C13.3177 14 13.2393 13.9843 13.1663 13.9539C13.0932 13.9234 13.0269 13.8788 12.9711 13.8226L8 8.84507L3.02888 13.8226C2.97314 13.8788 2.90681 13.9234 2.83374 13.9539C2.76067 13.9843 2.68229 14 2.60313 14C2.52397 14 2.44559 13.9843 2.37252 13.9539C2.29944 13.9234 2.23312 13.8788 2.17738 13.8226C2.12117 13.7669 2.07656 13.7005 2.04612 13.6275C2.01567 13.5544 2 13.476 2 13.3968C2 13.3177 2.01567 13.2393 2.04612 13.1662C2.07656 13.0931 2.12117 13.0268 2.17738 12.971L7.15449 7.99949L2.17738 3.02795C2.06446 2.91502 2.00102 2.76186 2.00102 2.60216C2.00102 2.52308 2.0166 2.44478 2.04686 2.37172C2.07711 2.29866 2.12147 2.23228 2.17738 2.17637C2.23329 2.12045 2.29966 2.0761 2.37271 2.04584C2.44576 2.01558 2.52406 2 2.60313 2C2.76282 2 2.91597 2.06344 3.02888 2.17637L8 7.15391L12.9711 2.17637C13.084 2.06344 13.2372 2 13.3969 2C13.5566 2 13.7097 2.06344 13.8226 2.17637C13.9355 2.28929 13.999 2.44246 13.999 2.60216C13.999 2.76186 13.9355 2.91502 13.8226 3.02795L8.84551 7.99949L13.8226 12.971Z" fill="white" fill-opacity="0.25"/>
</svg>
