<svg width="20" height="20" viewBox="0 0 20 20" fill="none" xmlns="http://www.w3.org/2000/svg">
<path d="M4.9 3C3.85066 3 3 3.85066 3 4.9V6.8C3 7.84934 3.85066 8.7 4.9 8.7H6.8C7.84934 8.7 8.7 7.84934 8.7 6.8V4.9C8.7 3.85066 7.84934 3 6.8 3H4.9Z" fill="white"/>
<path d="M11 4.9C11 3.85066 11.8506 3 12.9 3H14.8C15.8494 3 16.7 3.85066 16.7 4.9V6.8C16.7 7.84934 15.8494 8.7 14.8 8.7H12.9C11.8506 8.7 11 7.84934 11 6.8V4.9Z" fill="white"/>
<path d="M4.9 11C3.85066 11 3 11.8506 3 12.9V14.8C3 15.8494 3.85066 16.7 4.9 16.7H6.8C7.84934 16.7 8.7 15.8494 8.7 14.8V12.9C8.7 11.8506 7.84934 11 6.8 11H4.9Z" fill="white"/>
<path d="M11 12.9C11 11.8506 11.8506 11 12.9 11H14.8C15.8494 11 16.7 11.8506 16.7 12.9V14.8C16.7 15.8494 15.8494 16.7 14.8 16.7H12.9C11.8506 16.7 11 15.8494 11 14.8V12.9Z" fill="white"/>
</svg>
