<svg width="20" height="21" viewBox="0 0 20 21" fill="none" xmlns="http://www.w3.org/2000/svg">
<g clip-path="url(#clip0_5353_103)">
<path d="M2 0C0.89543 0 0 0.8954 0 2V4C0 5.1046 0.89543 6 2 6H4C5.10457 6 6 5.1046 6 4V2C6 0.8954 5.10457 0 4 0H2Z" fill="white"/>
<path d="M7 2C7 0.89543 7.8954 0 9 0H11C12.1046 0 13 0.89543 13 2V4C13 5.10457 12.1046 6 11 6H9C7.8954 6 7 5.10457 7 4V2Z" fill="white"/>
<path d="M14 2C14 0.8954 14.8954 0 16 0H18C19.1046 0 20 0.8954 20 2V4C20 5.1046 19.1046 6 18 6H16C14.8954 6 14 5.1046 14 4V2Z" fill="white"/>
<path d="M2 7.33331C0.89543 7.33331 0 8.22871 0 9.33331V11.3333C0 12.4379 0.89543 13.3333 2 13.3333H4C5.10457 13.3333 6 12.4379 6 11.3333V9.33331C6 8.22871 5.10457 7.33331 4 7.33331H2Z" fill="white"/>
<path d="M7 9.33331C7 8.22871 7.8954 7.33331 9 7.33331H11C12.1046 7.33331 13 8.22871 13 9.33331V11.3333C13 12.4379 12.1046 13.3333 11 13.3333H9C7.8954 13.3333 7 12.4379 7 11.3333V9.33331Z" fill="white"/>
<path d="M16 7.33331C14.8954 7.33331 14 8.22874 14 9.33331V11.3333C14 12.4379 14.8954 13.3333 16 13.3333H18C19.1046 13.3333 20 12.4379 20 11.3333V9.33331C20 8.22874 19.1046 7.33331 18 7.33331H16Z" fill="white"/>
<path d="M0 16.6667C0 15.5621 0.8954 14.6667 2 14.6667H4C5.1046 14.6667 6 15.5621 6 16.6667V18.6667C6 19.7713 5.1046 20.6667 4 20.6667H2C0.8954 20.6667 0 19.7713 0 18.6667V16.6667Z" fill="white"/>
<path d="M7 16.6667C7 15.5621 7.8954 14.6667 9 14.6667H11C12.1046 14.6667 13 15.5621 13 16.6667V18.6667C13 19.7713 12.1046 20.6667 11 20.6667H9C7.8954 20.6667 7 19.7713 7 18.6667V16.6667Z" fill="white"/>
<path d="M14 16.6667C14 15.5621 14.8954 14.6667 16 14.6667H18C19.1046 14.6667 20 15.5621 20 16.6667V18.6667C20 19.7713 19.1046 20.6667 18 20.6667H16C14.8954 20.6667 14 19.7713 14 18.6667V16.6667Z" fill="white"/>
</g>
<defs>
<clipPath id="clip0_5353_103">
<rect width="20" height="21" fill="white"/>
</clipPath>
</defs>
</svg>
