<svg width="16" height="16" viewBox="0 0 16 16" fill="none" xmlns="http://www.w3.org/2000/svg">
<g clip-path="url(#clip0_375_5039)">
<path d="M0.728005 7.27273C0.921082 7.27273 1.10625 7.34936 1.24278 7.48574C1.37931 7.62213 1.456 7.80712 1.456 8C1.453 9.48796 1.95657 10.9327 2.88401 12.097C3.81145 13.2613 5.10764 14.076 6.55972 14.4072C8.01181 14.7384 9.53348 14.5665 10.8749 13.9197C12.2162 13.2729 13.2976 12.1897 13.9413 10.8479C14.5851 9.50606 14.753 7.98545 14.4174 6.53574C14.0819 5.08603 13.2629 3.79339 12.0949 2.87008C10.9268 1.94678 9.47924 1.4477 7.9898 1.45479C6.50036 1.46188 5.03889 1.9357 3.87973 2.87008H4.07729C4.27037 2.87008 4.45554 2.94671 4.59206 3.0831C4.72859 3.21949 4.80529 3.40447 4.80529 3.59735C4.80529 3.79024 4.72859 3.97522 4.59206 4.11161C4.45554 4.248 4.27037 4.32462 4.07729 4.32462L2.06273 4.35716C1.86965 4.35716 1.68448 4.28054 1.54796 4.14415C1.41143 4.00776 1.33473 3.82278 1.33473 3.62989V1.56586C1.33473 1.37297 1.41143 1.18799 1.54796 1.0516C1.68448 0.91521 1.86965 0.838587 2.06273 0.838587C2.25581 0.838587 2.44098 0.91521 2.57751 1.0516C2.71403 1.18799 2.79073 1.37297 2.79073 1.56586V1.83427C4.19382 0.679049 6.07025 0.0422578 7.88828 0.0168931C9.70631 -0.0084716 11.4788 0.585597 12.9136 1.70122C14.3484 2.81684 15.3601 4.38746 15.7818 6.15431C16.2035 7.92115 16.0102 9.77881 15.2337 11.4212C14.4572 13.0636 13.1439 14.3928 11.51 15.1897C9.87613 15.9867 8.01927 16.2038 6.24533 15.8054C4.4714 15.407 2.88622 14.4169 1.75098 12.998C0.615744 11.5792 -0.00183297 9.81638 4.08656e-06 8C4.08656e-06 7.80712 0.0767033 7.62213 0.21323 7.48574C0.349757 7.34936 0.534927 7.27273 0.728005 7.27273Z" fill="white" fill-opacity="0.25"/>
<path fill-rule="evenodd" clip-rule="evenodd" d="M13 8C13 10.7614 10.7614 13 8 13C5.23858 13 3 10.7614 3 8C3 5.23858 5.23858 3 8 3C10.7614 3 13 5.23858 13 8ZM7.11257 8.76634V5.01634H8.2433V8.13534L10.0433 9.48534L9.31257 10.4163L7.11257 8.76634Z" fill="white" fill-opacity="0.25"/>
</g>
<defs>
<clipPath id="clip0_375_5039">
<rect width="16" height="16" fill="white"/>
</clipPath>
</defs>
</svg>
